<svg width="64" height="64" viewBox="0 0 64 64" fill="none" xmlns="http://www.w3.org/2000/svg">
<rect width="64" height="64" fill="#1F6DC9" fill-opacity="0.2"/>
<path d="M32 23C31.45 23 31 23.45 31 24V32C31 32.55 31.45 33 32 33C32.55 33 33 32.55 33 32V24C33 23.45 32.55 23 32 23ZM37.14 25.86C36.75 26.25 36.76 26.86 37.13 27.25C38.26 28.45 38.96 30.05 39 31.82C39.09 35.65 35.92 38.95 32.09 38.99C28.18 39.05 25 35.9 25 32C25 30.16 25.71 28.49 26.87 27.24C27.24 26.85 27.24 26.24 26.86 25.86C26.46 25.46 25.81 25.47 25.43 25.88C23.98 27.42 23.07 29.47 23 31.74C22.86 36.62 26.83 40.84 31.71 40.99C36.81 41.15 41 37.06 41 31.99C41 29.62 40.08 27.48 38.58 25.88C38.2 25.47 37.54 25.46 37.14 25.86Z" fill="#1F6DC9"/>
</svg>
