<svg width="245" height="64" viewBox="0 0 245 64" fill="none" xmlns="http://www.w3.org/2000/svg">
<rect width="245" height="64" fill="#B3BCD0" fill-opacity="0.4"/>
<circle cx="44" cy="32" r="12" fill="#4F68E8"/>
<path d="M44.2767 23L44.156 23.4102V35.3133L44.2767 35.4338L49.8019 32.1678L44.2767 23Z" fill="#C0CBF6"/>
<path d="M44.2754 23L38.7501 32.1678L44.2754 35.4338V29.6564V23Z" fill="white"/>
<path d="M44.2768 36.4781L44.2087 36.5611V40.8012L44.2768 40.9999L49.8053 33.2139L44.2768 36.4781Z" fill="#C0CBF6"/>
<path d="M44.2754 40.9999V36.4781L38.7501 33.2139L44.2754 40.9999Z" fill="white"/>
<path d="M44.2745 35.44L49.7997 32.174L44.2745 29.6626V35.44Z" fill="#8197EE"/>
<path d="M38.7501 32.174L44.2754 35.44V29.6626L38.7501 32.174Z" fill="#C0CBF6"/>
<path d="M77.152 37.192C79.648 37.192 81.392 34.856 81.392 31.48C81.392 28.104 79.648 25.768 77.152 25.768C74.64 25.768 72.896 28.104 72.896 31.48C72.896 34.856 74.64 37.192 77.152 37.192ZM77.152 35.784C75.536 35.784 74.4 34.024 74.4 31.48C74.4 28.936 75.536 27.176 77.152 27.176C78.752 27.176 79.888 28.936 79.888 31.48C79.888 34.024 78.752 35.784 77.152 35.784ZM90.9213 37L87.7693 32.904L90.8733 28.84H89.1933L86.8253 31.976L84.4573 28.84H82.7773L85.8813 32.904L82.7293 37H84.4093L86.8093 33.816L89.2253 37H90.9213ZM97.183 31.272C98.063 30.808 98.655 29.88 98.655 28.808C98.655 27.08 97.295 25.768 95.487 25.768C93.679 25.768 92.319 27.08 92.319 28.808H93.823C93.823 27.88 94.527 27.176 95.487 27.176C96.431 27.176 97.151 27.88 97.151 28.808C97.151 29.848 96.431 30.6 95.423 30.6H94.127V31.992H95.423C96.543 31.992 97.359 32.824 97.359 33.976C97.359 35 96.559 35.784 95.487 35.784C94.415 35.784 93.615 35 93.615 33.976H92.111C92.111 35.8 93.551 37.192 95.487 37.192C97.407 37.192 98.863 35.8 98.863 33.976C98.863 32.76 98.191 31.752 97.183 31.272ZM108.216 33.144H106.776V25.96H105.192L100.184 33.432V34.52H105.32V37H106.776V34.52H108.216V33.144ZM101.864 33.144L105.32 27.912V33.144H101.864ZM113.456 29.992C112.72 29.992 111.92 30.28 111.456 30.712L111.728 27.336H116.288V25.96H110.4L109.888 32.36H111.408C111.76 31.816 112.592 31.4 113.328 31.4C114.576 31.4 115.488 32.344 115.488 33.592C115.488 34.84 114.576 35.784 113.328 35.784C112.096 35.784 111.168 34.84 111.168 33.592H109.664C109.664 35.656 111.232 37.192 113.328 37.192C115.424 37.192 117.008 35.656 117.008 33.592C117.008 31.528 115.472 29.992 113.456 29.992ZM120.489 35.624L123.673 32.056C124.441 31.176 125.097 30.264 125.097 29.032C125.097 27.176 123.689 25.768 121.801 25.768C119.929 25.768 118.521 27.176 118.521 29.032H120.025C120.025 27.992 120.777 27.224 121.801 27.224C122.825 27.224 123.593 27.992 123.593 29.032C123.593 29.848 123.017 30.648 122.393 31.352L118.441 35.832V37H125.225V35.624H120.489ZM128.075 37.112C128.667 37.112 129.115 36.664 129.115 36.088C129.115 35.512 128.667 35.064 128.075 35.064C127.499 35.064 127.051 35.512 127.051 36.088C127.051 36.664 127.499 37.112 128.075 37.112ZM131.841 37.112C132.433 37.112 132.881 36.664 132.881 36.088C132.881 35.512 132.433 35.064 131.841 35.064C131.265 35.064 130.817 35.512 130.817 36.088C130.817 36.664 131.265 37.112 131.841 37.112ZM135.606 37.112C136.198 37.112 136.646 36.664 136.646 36.088C136.646 35.512 136.198 35.064 135.606 35.064C135.03 35.064 134.582 35.512 134.582 36.088C134.582 36.664 135.03 37.112 135.606 37.112ZM143.308 31.272C144.188 30.808 144.78 29.88 144.78 28.808C144.78 27.08 143.42 25.768 141.612 25.768C139.804 25.768 138.444 27.08 138.444 28.808H139.948C139.948 27.88 140.652 27.176 141.612 27.176C142.556 27.176 143.276 27.88 143.276 28.808C143.276 29.848 142.556 30.6 141.548 30.6H140.252V31.992H141.548C142.668 31.992 143.484 32.824 143.484 33.976C143.484 35 142.684 35.784 141.612 35.784C140.54 35.784 139.74 35 139.74 33.976H138.236C138.236 35.8 139.676 37.192 141.612 37.192C143.532 37.192 144.988 35.8 144.988 33.976C144.988 32.76 144.316 31.752 143.308 31.272ZM153.701 25.48V30.392C153.029 29.32 151.893 28.648 150.533 28.648C148.197 28.648 146.453 30.488 146.453 32.92C146.453 35.352 148.197 37.192 150.533 37.192C151.893 37.192 153.029 36.52 153.701 35.448V37H155.077V25.48H153.701ZM150.789 35.864C149.109 35.864 147.861 34.6 147.861 32.92C147.861 31.24 149.109 29.976 150.789 29.976C152.453 29.976 153.701 31.24 153.701 32.92C153.701 34.6 152.453 35.864 150.789 35.864ZM159.114 35.624L162.298 32.056C163.066 31.176 163.722 30.264 163.722 29.032C163.722 27.176 162.314 25.768 160.426 25.768C158.554 25.768 157.146 27.176 157.146 29.032H158.65C158.65 27.992 159.402 27.224 160.426 27.224C161.45 27.224 162.218 27.992 162.218 29.032C162.218 29.848 161.642 30.648 161.018 31.352L157.066 35.832V37H163.85V35.624H159.114ZM165.111 25.96V27.336H170.567L166.007 37H167.655L172.311 27.096V25.96H165.111Z" fill="#525F7B"/>
<path d="M196 27.0002H206V28.7902C206 29.2402 206.54 29.4602 206.85 29.1402L209.64 26.3502C209.84 26.1502 209.84 25.8402 209.64 25.6402L206.85 22.8502C206.54 22.5402 206 22.7602 206 23.2102V25.0002H195C194.45 25.0002 194 25.4502 194 26.0002V30.0002C194 30.5502 194.45 31.0002 195 31.0002C195.55 31.0002 196 30.5502 196 30.0002V27.0002ZM206 37.0002H196V35.2102C196 34.7602 195.46 34.5402 195.15 34.8602L192.36 37.6502C192.16 37.8502 192.16 38.1602 192.36 38.3602L195.15 41.1502C195.46 41.4602 196 41.2402 196 40.7902V39.0002H207C207.55 39.0002 208 38.5502 208 38.0002V34.0002C208 33.4502 207.55 33.0002 207 33.0002C206.45 33.0002 206 33.4502 206 34.0002V37.0002Z" fill="#525F7B"/>
</svg>
