<svg width="64" height="64" viewBox="0 0 64 64" fill="none" xmlns="http://www.w3.org/2000/svg">
<rect width="64" height="64" fill="#1F6DC9" fill-opacity="0.2"/>
<path d="M27.65 22.3502L24.86 25.1402C24.54 25.4602 24.76 26.0002 25.21 26.0002H27V40.0002C27 40.5502 27.45 41.0002 28 41.0002C28.55 41.0002 29 40.5502 29 40.0002V26.0002H30.79C31.24 26.0002 31.46 25.4602 31.14 25.1502L28.35 22.3602C28.16 22.1602 27.84 22.1602 27.65 22.3502Z" fill="#1F6DC9"/>
<path d="M36.35 41.6502L39.14 38.8602C39.46 38.5402 39.24 38.0002 38.79 38.0002H37V24.0002C37 23.4502 36.55 23.0002 36 23.0002C35.45 23.0002 35 23.4502 35 24.0002V38.0002H33.21C32.76 38.0002 32.54 38.5402 32.86 38.8502L35.65 41.6402C35.84 41.8402 36.16 41.8402 36.35 41.6502Z" fill="#1F6DC9"/>
</svg>
